<?xml version="1.0" encoding="UTF-8"?>
<svg id="Layer_2" data-name="Layer 2" xmlns="http://www.w3.org/2000/svg" viewBox="0 0 298.99 406.31">
  <defs>
    <style>
      .cls-1 {
        fill: #231f20;
      }
    </style>
  </defs>
  <g id="Layer_1-2" data-name="Layer 1">
    <path class="cls-1" d="M269.96,14.07c-4.59-2.21-19.12-7.9-24.6-10.37-4.17-2.02-8.77-3.87-13.79-3.68-9.77.43-12.03,4.23-20.33,7.49-59.22,28.22-121.45,2.44-136.25-4.94-7.52-3.19-15.48-1.89-22.54,2.19-6.16,2.77-13.37,6.12-19.38,8.83-2.26,1.08-3.35,1.36-3.16,2.94,12.39,28.73,15.62,62.44,7.2,91.94-7.51,27.6-21.92,51.06-37.11,67.47.51,22.39,2.2,125.88,3.3,182.41-.72,14.27,3.65,29.06,14.8,38,7.2,6.31,17.37,9.84,27.16,9.86,29.4-.43,81.7.31,120.33,0,51.59-.5,80.69.85,95.13-.53,20.18-2.71,35.4-20.82,35.37-41.04.19-8.47,1.74-115.53,2.55-164.69.19-12.79.34-21.54.36-23.45-.06-.47-.29-.66-.7-1.2-57.54-58.04-41.36-135.2-28.29-161.2l-.04-.02Z"/>
  </g>
</svg>