<?xml version="1.0" encoding="UTF-8"?>
<svg id="Layer_2" data-name="Layer 2" xmlns="http://www.w3.org/2000/svg" xmlns:xlink="http://www.w3.org/1999/xlink" viewBox="0 0 1223.17 1222.57">
  <defs>
    <style>
      .cls-1 {
        fill: none;
      }

      .cls-2 {
        fill: url(#linear-gradient-2);
      }

      .cls-3 {
        fill: url(#linear-gradient);
      }

      .cls-4 {
        clip-path: url(#clippath-1);
      }

      .cls-5 {
        clip-path: url(#clippath);
      }
    </style>
    <clipPath id="clippath">
      <path class="cls-1" d="M0,590.6c4.2-120.52,44.37-232.64,109.73-326.18,50.97,7.2,79.15,92.34,81.54,136.11.6,3,.6,6,1.2,8.39C119.92,464.09,53.36,531.24.6,603.79c-.6-4.2-.6-8.39-.6-13.19ZM202.66,1063.08C102.53,971.94,31.78,849.03,8.39,712.32c49.77-79.75,113.92-152.9,182.88-214.06-8.99,182.28-61.16,394.53,11.39,564.82ZM149.9,211.66c49.77-56.36,108.53-103.73,175.08-139.71-18.59,60.56-23.38,148.7-10.79,257.23-19.79,10.79-39.57,22.78-58.76,35.38-11.99-59.96-45.57-136.71-105.53-152.9ZM324.98,401.73c40.77,232.64,155.89,533.64,384.94,813.05-31.78,5.4-64.76,7.79-98.33,7.79-72.55,0-142.7-14.39-206.26-39.57-265.02-152.3-141.5-466.48-143.3-740.5,20.39-14.99,41.37-28.18,62.96-40.77ZM394.53,39.57C454.49,16.19,519.85,2.4,587,0h11.39c-80.35,48.57-131.91,128.31-131.91,224.25,0,12.59,1.2,24.58,2.4,37.17-31.18,10.19-61.76,22.19-91.14,35.98-11.39-119.32.6-204.46,16.79-257.83ZM1107.45,965.35c-78.55,109.73-191.87,192.47-322.58,231.44-246.43-289.6-361.56-601.99-398.13-828.04,32.38-16.19,66.56-29.98,100.73-41.97,109.13,255.43,610.99,343.57,619.98,638.57ZM535.44,224.25c-3-106.73,76.75-174.48,203.26-211.06,160.09,34.78,297.4,133.11,384.34,266.82-108.53-44.37-229.64-68.35-351.36-68.35-81.54,0-160.09,10.19-235.04,29.38-.6-5.4-1.2-11.39-1.2-16.79ZM555.22,306.99c68.95-17.39,141.5-26.38,216.45-26.38,145.1,0,277.01,32.98,404.73,99.53,30.58,70.75,46.77,149.3,46.77,230.84,0,94.74-22.19,184.08-61.76,265.02-88.74-283.01-510.85-371.75-606.19-569.01Z"/>
    </clipPath>
    <linearGradient id="linear-gradient" x1="514.05" y1="-534.77" x2="514.05" y2="604.23" gradientUnits="userSpaceOnUse">
      <stop offset="0" stop-color="#333"/>
      <stop offset="1" stop-color="#000"/>
    </linearGradient>
    <clipPath id="clippath-1">
      <path class="cls-1" d="M0,590.6c4.2-120.52,44.37-232.64,109.73-326.18,50.97,7.2,79.15,92.34,81.54,136.11.6,3,.6,6,1.2,8.39C119.92,464.09,53.36,531.24.6,603.79c-.6-4.2-.6-8.39-.6-13.19ZM202.66,1063.08C102.53,971.94,31.78,849.03,8.39,712.32c49.77-79.75,113.92-152.9,182.88-214.06-8.99,182.28-61.16,394.53,11.39,564.82ZM149.9,211.66c49.77-56.36,108.53-103.73,175.08-139.71-18.59,60.56-23.38,148.7-10.79,257.23-19.79,10.79-39.57,22.78-58.76,35.38-11.99-59.96-45.57-136.71-105.53-152.9ZM324.98,401.73c40.77,232.64,155.89,533.64,384.94,813.05-31.78,5.4-64.76,7.79-98.33,7.79-72.55,0-142.7-14.39-206.26-39.57-265.02-152.3-141.5-466.48-143.3-740.5,20.39-14.99,41.37-28.18,62.96-40.77ZM394.53,39.57C454.49,16.19,519.85,2.4,587,0h11.39c-80.35,48.57-131.91,128.31-131.91,224.25,0,12.59,1.2,24.58,2.4,37.17-31.18,10.19-61.76,22.19-91.14,35.98-11.39-119.32.6-204.46,16.79-257.83ZM1107.45,965.35c-78.55,109.73-191.87,192.47-322.58,231.44-246.43-289.6-361.56-601.99-398.13-828.04,32.38-16.19,66.56-29.98,100.73-41.97,109.13,255.43,610.99,343.57,619.98,638.57ZM535.44,224.25c-3-106.73,76.75-174.48,203.26-211.06,160.09,34.78,297.4,133.11,384.34,266.82-108.53-44.37-229.64-68.35-351.36-68.35-81.54,0-160.09,10.19-235.04,29.38-.6-5.4-1.2-11.39-1.2-16.79ZM555.22,306.99c68.95-17.39,141.5-26.38,216.45-26.38,145.1,0,277.01,32.98,404.73,99.53,30.58,70.75,46.77,149.3,46.77,230.84,0,94.74-22.19,184.08-61.76,265.02-88.74-283.01-510.85-371.75-606.19-569.01Z"/>
    </clipPath>
    <linearGradient id="linear-gradient-2" x1="-989.14" y1="658.57" x2="-989.14" y2="-1098.77" gradientTransform="translate(1573 564)" gradientUnits="userSpaceOnUse">
      <stop offset="0" stop-color="#f7931e"/>
      <stop offset="1" stop-color="#fbb03b"/>
    </linearGradient>
  </defs>
  <g id="Layer_1-2" data-name="Layer 1">
    <g>
      <g class="cls-5">
        <rect class="cls-3" x="-55.45" y="-534.77" width="1139" height="1139" rx="200" ry="200"/>
      </g>
      <g class="cls-4">
        <rect class="cls-2" x="-55.45" y="-534.77" width="1139" height="1139" rx="200" ry="200"/>
      </g>
    </g>
  </g>
</svg>