<?xml version="1.0" encoding="UTF-8"?>
<svg id="Layer_2" data-name="Layer 2" xmlns="http://www.w3.org/2000/svg" xmlns:xlink="http://www.w3.org/1999/xlink" viewBox="0 0 1024 1024">
  <defs>
    <style>
      .cls-1 {
        fill: none;
      }

      .cls-2 {
        fill: #f7931e;
        font-family: SFProDisplay-Regular, 'SF Pro Display';
        font-size: 1161.08px;
      }

      .cls-3 {
        fill: url(#linear-gradient);
      }

      .cls-4 {
        clip-path: url(#clippath);
      }
    </style>
    <clipPath id="clippath">
      <rect class="cls-1" width="1024" height="1024"/>
    </clipPath>
    <linearGradient id="linear-gradient" x1="577.76" y1="1506.6" x2="577.76" y2="350.61" gradientUnits="userSpaceOnUse">
      <stop offset="0" stop-color="gray"/>
      <stop offset="1" stop-color="#f2f2f2"/>
    </linearGradient>
  </defs>
  <g id="Layer_1-2" data-name="Layer 1">
    <rect width="1024" height="1024"/>
    <g class="cls-4">
      <g>
        <text class="cls-2" transform="translate(-102 1337.66)"><tspan x="0" y="0">􁗊</tspan></text>
        <path class="cls-3" d="M-.52,909.05c3.97-113.96,41.95-219.97,103.75-308.42,48.19,6.8,74.84,87.31,77.1,128.7.57,2.83.57,5.67,1.13,7.94C112.87,789.42,49.94,852.92.05,921.52c-.57-3.97-.57-7.94-.57-12.47ZM191.11,1355.8c-94.68-86.17-161.58-202.4-183.69-331.66,47.06-75.4,107.72-144.57,172.92-202.4-8.5,172.35-57.83,373.05,10.77,534.06ZM141.22,550.74c47.06-53.29,102.62-98.08,165.55-132.1-17.58,57.26-22.11,140.6-10.21,243.22-18.71,10.21-37.42,21.54-55.56,33.45-11.34-56.69-43.09-129.26-99.78-144.57ZM306.76,730.46c38.55,219.97,147.4,504.58,363.98,768.77-30.05,5.1-61.23,7.37-92.98,7.37-68.6,0-134.93-13.61-195.03-37.42-250.59-144-133.8-441.08-135.5-700.17,19.28-14.17,39.12-26.65,59.53-38.55ZM372.53,388.03c56.69-22.11,118.49-35.15,181.99-37.42h10.77c-75.97,45.92-124.73,121.33-124.73,212.04,0,11.91,1.13,23.25,2.27,35.15-29.48,9.64-58.4,20.98-86.17,34.02-10.77-112.82.57-193.33,15.87-243.78ZM1046.62,1263.39c-74.27,103.75-181.42,181.99-305.01,218.84-233.01-273.83-341.86-569.21-376.45-782.94,30.61-15.31,62.93-28.35,95.25-39.69,103.18,241.52,577.71,324.86,586.22,603.79ZM505.76,562.65c-2.83-100.92,72.57-164.98,192.19-199.56,151.37,32.88,281.2,125.86,363.41,252.29-102.62-41.95-217.14-64.63-332.23-64.63-77.1,0-151.37,9.64-222.24,27.78-.57-5.1-1.13-10.77-1.13-15.88ZM524.47,640.89c65.2-16.44,133.8-24.95,204.67-24.95,137.2,0,261.93,31.18,382.69,94.11,28.91,66.9,44.22,141.17,44.22,218.27,0,89.58-20.98,174.05-58.39,250.59-83.91-267.6-483.03-351.5-573.18-538.03Z"/>
      </g>
    </g>
  </g>
</svg>