<?xml version="1.0" encoding="UTF-8"?>
<svg id="Layer_2" data-name="Layer 2" xmlns="http://www.w3.org/2000/svg" xmlns:xlink="http://www.w3.org/1999/xlink" viewBox="0 0 1024 1024">
  <defs>
    <style>
      .cls-1 {
        fill: none;
      }

      .cls-2 {
        fill: #f7931e;
        font-family: SFProDisplay-Regular, 'SF Pro Display';
        font-size: 782.68px;
      }

      .cls-3 {
        fill: url(#linear-gradient-2);
      }

      .cls-4 {
        fill: url(#linear-gradient);
      }

      .cls-5 {
        fill: #fff;
      }

      .cls-6 {
        clip-path: url(#clippath);
      }
    </style>
    <linearGradient id="linear-gradient" x1="508" y1="1024" x2="508" y2="466.5" gradientUnits="userSpaceOnUse">
      <stop offset="0" stop-color="#000"/>
      <stop offset="1" stop-color="#333"/>
    </linearGradient>
    <clipPath id="clippath">
      <rect class="cls-1" width="1024" height="1024"/>
    </clipPath>
    <linearGradient id="linear-gradient-2" x1="508.22" y1="1245.04" x2="508.22" y2="465.79" gradientUnits="userSpaceOnUse">
      <stop offset="0" stop-color="#f7931e"/>
      <stop offset="1" stop-color="#fbb03b"/>
    </linearGradient>
  </defs>
  <g id="Layer_1-2" data-name="Layer 1">
    <rect class="cls-5" width="1024" height="1024"/>
    <g>
      <path d="M896.5,855c0,60.57-13.86,117.9-38.59,169H158.09c-24.73-51.1-38.59-108.43-38.59-169,0-214.56,173.94-388.5,388.5-388.5s388.5,173.94,388.5,388.5Z"/>
      <path class="cls-4" d="M896.5,855c0,60.57-13.86,117.9-38.59,169H158.09c-24.73-51.1-38.59-108.43-38.59-169,0-214.56,173.94-388.5,388.5-388.5s388.5,173.94,388.5,388.5Z"/>
    </g>
    <g class="cls-6">
      <g>
        <text class="cls-2" transform="translate(50 1131.15)"><tspan x="0" y="0">􁗊</tspan></text>
        <path class="cls-3" d="M118.41,842.23c2.68-76.82,28.28-148.28,69.94-207.9,32.48,4.59,50.45,58.85,51.98,86.75.38,1.91.38,3.82.76,5.35-46.24,35.16-88.66,77.96-122.29,124.21-.38-2.68-.38-5.35-.38-8.41ZM247.58,1143.38c-63.82-58.09-108.92-136.44-123.82-223.57,31.72-50.83,72.61-97.45,116.56-136.44-5.73,116.18-38.98,251.47,7.26,360.01ZM213.95,600.69c31.72-35.92,69.17-66.12,111.59-89.05-11.85,38.6-14.9,94.78-6.88,163.95-12.61,6.88-25.22,14.52-37.45,22.55-7.64-38.22-29.04-87.14-67.26-97.45ZM325.55,721.84c25.99,148.28,99.36,340.13,245.35,518.22-20.25,3.44-41.27,4.97-62.68,4.97-46.24,0-90.96-9.17-131.47-25.22-168.92-97.07-90.19-297.33-91.34-471.98,12.99-9.55,26.37-17.96,40.13-25.99ZM369.88,491.01c38.22-14.9,79.87-23.69,122.68-25.22h7.26c-51.21,30.96-84.08,81.78-84.08,142.93,0,8.03.76,15.67,1.53,23.69-19.87,6.5-39.36,14.14-58.09,22.93-7.26-76.05.38-130.32,10.7-164.33ZM824.28,1081.08c-50.06,69.94-122.29,122.68-205.61,147.52-157.07-184.59-230.45-383.7-253.76-527.78,20.64-10.32,42.42-19.11,64.2-26.75,69.56,162.8,389.43,218.98,395.17,407.01ZM459.69,608.72c-1.91-68.03,48.92-111.21,129.56-134.52,102.04,22.17,189.56,84.84,244.97,170.07-69.17-28.28-146.37-43.57-223.95-43.57-51.98,0-102.04,6.5-149.81,18.73-.38-3.44-.76-7.26-.76-10.7ZM472.3,661.46c43.95-11.08,90.19-16.82,137.96-16.82,92.48,0,176.56,21.02,257.96,63.44,19.49,45.1,29.81,95.16,29.81,147.14,0,60.38-14.14,117.33-39.36,168.92-56.56-180.39-325.61-236.95-386.38-362.68Z"/>
      </g>
    </g>
  </g>
</svg>