<?xml version="1.0" encoding="UTF-8"?>
<svg id="Layer_2" data-name="Layer 2" xmlns="http://www.w3.org/2000/svg" xmlns:xlink="http://www.w3.org/1999/xlink" viewBox="0 0 1024 1024">
  <defs>
    <style>
      .cls-1 {
        fill: none;
      }

      .cls-2 {
        fill: url(#linear-gradient-2);
      }

      .cls-3 {
        fill: url(#linear-gradient);
      }

      .cls-4 {
        fill: #f6921e;
        font-family: SFProDisplay-Regular, 'SF Pro Display';
        font-size: 1161.08px;
      }

      .cls-5 {
        clip-path: url(#clippath-1);
      }

      .cls-6 {
        fill: #bf7117;
      }

      .cls-7 {
        clip-path: url(#clippath);
      }
    </style>
    <linearGradient id="linear-gradient" x1="512.02" y1="455" x2="512.02" y2="1024" gradientUnits="userSpaceOnUse">
      <stop offset="0" stop-color="#e5e5e5"/>
      <stop offset=".24" stop-color="#e1e1e1"/>
      <stop offset=".43" stop-color="#d7d7d7"/>
      <stop offset=".61" stop-color="#c6c6c6"/>
      <stop offset=".77" stop-color="#afafaf"/>
      <stop offset=".93" stop-color="#909090"/>
      <stop offset="1" stop-color="gray"/>
    </linearGradient>
    <clipPath id="clippath">
      <rect class="cls-1" width="1024" height="1024"/>
    </clipPath>
    <clipPath id="clippath-1">
      <rect class="cls-1" width="1024" height="1024"/>
    </clipPath>
    <linearGradient id="linear-gradient-2" x1="526.53" y1="0" x2="526.53" y2="1609.6" gradientUnits="userSpaceOnUse">
      <stop offset="0" stop-color="#fff"/>
      <stop offset=".22" stop-color="#fbfbfb"/>
      <stop offset=".39" stop-color="#f1f1f1"/>
      <stop offset=".55" stop-color="#e0e0e0"/>
      <stop offset=".7" stop-color="#c9c9c9"/>
      <stop offset=".85" stop-color="#aaa"/>
      <stop offset=".98" stop-color="#858585"/>
      <stop offset="1" stop-color="gray"/>
    </linearGradient>
  </defs>
  <g id="Layer_1-2" data-name="Layer 1">
    <rect width="1024" height="1024"/>
    <g>
      <g>
        <path class="cls-6" d="M1024,1024v-357.61c-105.81-129.02-266.75-211.39-447-211.39C260.33,455,3.26,709.2.04,1024h1023.96Z"/>
        <path class="cls-3" d="M1024,1024v-357.61c-105.81-129.02-266.75-211.39-447-211.39C260.33,455,3.26,709.2.04,1024h1023.96Z"/>
      </g>
      <g>
        <g class="cls-7">
          <text class="cls-4" transform="translate(-102 1440.66)"><tspan x="0" y="0">􁗊</tspan></text>
        </g>
        <g class="cls-5">
          <path class="cls-2" d="M-.52,1012.05c3.97-113.96,41.95-219.97,103.75-308.42,48.19,6.8,74.84,87.31,77.1,128.7.57,2.83.57,5.67,1.13,7.94C112.87,892.42,49.94,955.92.05,1024.52c-.57-3.97-.57-7.94-.57-12.47ZM191.11,1458.8c-94.68-86.17-161.58-202.4-183.69-331.66,47.06-75.4,107.72-144.57,172.92-202.4-8.5,172.35-57.83,373.05,10.77,534.06ZM141.22,653.74c47.06-53.29,102.62-98.08,165.55-132.1-17.58,57.26-22.11,140.6-10.21,243.22-18.71,10.21-37.42,21.54-55.56,33.45-11.34-56.69-43.09-129.26-99.78-144.57ZM306.76,833.46c38.55,219.97,147.4,504.58,363.98,768.77-30.05,5.1-61.23,7.37-92.98,7.37-68.6,0-134.93-13.61-195.03-37.42-250.59-144-133.8-441.08-135.5-700.17,19.28-14.17,39.12-26.65,59.53-38.55ZM372.53,491.03c56.69-22.11,118.49-35.15,181.99-37.42h10.77c-75.97,45.92-124.73,121.33-124.73,212.04,0,11.91,1.13,23.25,2.27,35.15-29.48,9.64-58.4,20.98-86.17,34.02-10.77-112.82.57-193.33,15.87-243.78ZM1046.62,1366.39c-74.27,103.75-181.42,181.99-305.01,218.84-233.01-273.83-341.86-569.21-376.45-782.94,30.62-15.31,62.93-28.35,95.25-39.69,103.18,241.52,577.71,324.86,586.22,603.79ZM505.76,665.65c-2.83-100.92,72.57-164.98,192.19-199.56,151.37,32.88,281.2,125.86,363.41,252.29-102.62-41.95-217.14-64.63-332.23-64.63-77.1,0-151.37,9.64-222.24,27.78-.57-5.1-1.13-10.77-1.13-15.88ZM524.47,743.89c65.2-16.44,133.8-24.95,204.67-24.95,137.2,0,261.93,31.18,382.68,94.11,28.91,66.9,44.22,141.17,44.22,218.27,0,89.58-20.98,174.05-58.39,250.59-83.91-267.6-483.03-351.5-573.18-538.03Z"/>
        </g>
      </g>
    </g>
  </g>
</svg>